<?xml version="1.0" standalone="no"?>
<svg width="64" height="64" viewBox="0 0 512 384" version="1.1" xmlns="http://www.w3.org/2000/svg">
  <path d="M299 164l-63 -63v0l-1 -1v0l-2 -1v0l-1 -1v0l-2 -1v0h-1v0h-1c-1 0 -3 -1 -4 -1s-3 1 -4 1h-1v0h-1v0l-2 1v0l-1 1v0c-1 1 -2 1 -3 2v0l-63 63c-6 6 -6 17 0 23s18 6 24 0l35 -34v118c0 9 7 17 16 17s16 -8 16 -17v-118l35 34c6 6 18 6 24 0s6 -17 0 -23zM136 56 c-6 0 -12 2 -17 7l-112 112c-9 9 -9 25 0 34l112 112c9 9 25 9 34 0s9 -25 0 -34l-95 -95l95 -95c9 -9 9 -25 0 -34c-5 -5 -11 -7 -17 -7zM312 56c-6 0 -12 2 -17 7c-9 9 -9 25 0 34l95 95l-95 95c-9 9 -9 25 0 34s25 9 34 0l112 -112c9 -9 9 -25 0 -34l-112 -112 c-5 -5 -11 -7 -17 -7z" transform="matrix(1,0,0,-1,0,384)"/>
</svg>