<?xml version="1.0" standalone="no"?>
<svg width="64" height="64" viewBox="0 0 512 384" version="1.1" xmlns="http://www.w3.org/2000/svg">
  <path d="M176 360v0v-213c0 -97 -49 -131 -121 -131c-18 0 -40 3 -55 8l8 62c10 -4 24 -6 39 -6c31 0 49 15 49 68v212h80zM350 368v0c38 0 65 -7 85 -16l-19 -64c-13 7 -35 17 -67 17s-48 -16 -48 -33c0 -22 19 -31 62 -48c58 -22 85 -53 85 -102c0 -57 -42 -106 -133 -106 c-38 0 -72 10 -91 21l15 63v0c20 -11 49 -21 81 -21c34 0 52 15 52 38c0 21 -15 33 -55 47c-55 20 -93 52 -93 102c0 58 49 102 126 102z" transform="matrix(1,0,0,-1,0,384)"/>
</svg>