<?xml version="1.0" standalone="no"?>
<svg width="64" height="64" viewBox="0 0 384 384" version="1.1" xmlns="http://www.w3.org/2000/svg">
  <path d="M129 199c-29 -5 -49 -30 -49 -57v-43v-3h-15c-29 0 -54 29 -62 69c-2 9 -3 17 -3 27v1c0 53 29 95 65 95h127v16h-96v29c0 26 7 40 46 47c13 2 29 4 45 4s39 -1 55 -4c25 -4 46 -22 46 -47v-57v-31c0 -21 -14 -38 -33 -43c-4 -1 -8 -2 -13 -2h-104h3c-4 0 -8 0 -12 -1z M140 321c10 0 17 7 17 17s-7 18 -17 18s-18 -8 -18 -18s8 -17 18 -17zM380 225c3 -10 4 -21 4 -33c0 -16 -3 -30 -7 -43c-11 -31 -33 -53 -58 -53h-127v-16h96v-26c0 -26 -23 -40 -46 -47c-35 -10 -68 -9 -97 0c-25 7 -49 22 -49 47v54v33c0 21 14 36 33 41c4 1 8 2 13 2 h104c3 0 6 1 9 1c27 4 49 28 49 62v38v3h15c28 0 52 -26 61 -63zM244 65c-10 0 -18 -7 -18 -17s8 -18 18 -18s17 8 17 18s-7 17 -17 17z" transform="matrix(1,0,0,-1,0,384)"/>
</svg>