<?xml version="1.0" standalone="no"?>
<svg width="64" height="64" viewBox="0 0 512 384" version="1.1" xmlns="http://www.w3.org/2000/svg">
  <path d="M356 244c5 -3 7 -6 7 -12v-81c0 -6 -3 -10 -8 -13c-41 -27 -82 -55 -123 -82c-6 -4 -11 -4 -17 0c-41 27 -81 55 -122 82c-5 3 -8 7 -8 13v80c0 6 3 11 8 14c41 27 81 54 122 81c6 4 11 4 17 0c41 -27 83 -55 124 -82zM236 296v-54c0 -1 1 -2 2 -3c16 -11 31 -21 47 -32 c1 -1 3 -1 4 0l40 26zM212 295c0 0 -62 -41 -93 -62c14 -9 27 -17 40 -26c1 -1 3 -1 4 0c15 10 31 21 46 31c1 1 3 4 3 6v51zM109 211v-40l30 20zM212 87v53c0 1 -2 3 -3 4c-15 10 -31 21 -46 31c-2 1 -3 1 -5 0l-39 -26c31 -21 93 -62 93 -62zM227 165l39 26s-34 23 -40 27 c-1 1 -4 0 -5 -1c-5 -3 -9 -6 -14 -9c-8 -6 -25 -17 -25 -17l39 -26c2 -1 4 -1 6 0zM236 87l93 62l-38 26c-2 2 -5 2 -7 0c-15 -10 -30 -21 -45 -31c-2 -2 -3 -3 -3 -6v-51zM338 171v40l-30 -20zM224 384c-51 0 -100 -20 -136 -56s-56 -85 -56 -136s20 -100 56 -136 s85 -56 136 -56s100 20 136 56s56 85 56 136s-20 100 -56 136s-85 56 -136 56zM224 416v0c124 0 224 -100 224 -224s-100 -224 -224 -224s-224 100 -224 224s100 224 224 224z" transform="matrix(1,0,0,-1,0,384)"/>
</svg>