<?xml version="1.0" standalone="no"?>
<svg width="64" height="64" viewBox="0 0 288 384" version="1.1" xmlns="http://www.w3.org/2000/svg">
  <path d="M0 210c0 10 9 19 20 19s19 -9 19 -19v-14c0 -28 12 -53 31 -72s45 -31 74 -31s55 12 74 31s31 44 31 72v14c0 10 8 19 19 19s20 -9 20 -19v-14c0 -66 -46 -120 -108 -136c-1 0 -3 -1 -4 -1c-6 -2 -10 -7 -12 -13v-58c0 -11 -9 -20 -20 -20v0c-11 0 -20 9 -20 20v58 c-2 6 -6 11 -12 13c-1 0 -3 1 -4 1c-62 16 -108 70 -108 136v14zM67 340c0 42 34 76 77 76s78 -34 78 -76v-144c0 -42 -35 -75 -78 -75s-77 33 -77 75v144z" transform="matrix(1,0,0,-1,0,384)"/>
</svg>